<svg width="15" height="15" viewBox="0 0 15 15" fill="none" xmlns="http://www.w3.org/2000/svg">
<path d="M14.1289 14.1211H12.9696V0.439453C12.9696 0.196758 12.7728 0 12.5301 0H2.46891C2.22621 0 2.02945 0.196758 2.02945 0.439453V14.1211H0.870117C0.627422 14.1211 0.430664 14.3179 0.430664 14.5605C0.430664 14.8032 0.627422 15 0.870117 15H14.129C14.3717 15 14.5684 14.8032 14.5684 14.5605C14.5684 14.3179 14.3717 14.1211 14.1289 14.1211ZM6.00155 14.1211V11.1252H8.99748V14.1211H6.00155ZM9.87639 14.1211V10.6857C9.87639 10.443 9.67963 10.2463 9.43693 10.2463H5.5621C5.3194 10.2463 5.12265 10.443 5.12265 10.6857V14.1211H2.90836V0.878906H12.0907V14.1211H9.87639Z" fill="black"/>
<path d="M6.55492 1.94287H4.40137C4.15867 1.94287 3.96191 2.13963 3.96191 2.38232V4.53588C3.96191 4.77857 4.15867 4.97533 4.40137 4.97533H6.55492C6.79762 4.97533 6.99437 4.77857 6.99437 4.53588V2.38232C6.99437 2.13963 6.79762 1.94287 6.55492 1.94287ZM6.11547 4.09643H4.84082V2.82178H6.11547V4.09643Z" fill="black"/>
<path d="M10.5979 1.94287H8.44434C8.20164 1.94287 8.00488 2.13963 8.00488 2.38232V4.53588C8.00488 4.77857 8.20164 4.97533 8.44434 4.97533H10.5979C10.8406 4.97533 11.0373 4.77857 11.0373 4.53588V2.38232C11.0373 2.13963 10.8406 1.94287 10.5979 1.94287ZM10.1584 4.09643H8.88379V2.82178H10.1584V4.09643Z" fill="black"/>
<path d="M6.55492 6.03369H4.40137C4.15867 6.03369 3.96191 6.23045 3.96191 6.47314V8.6267C3.96191 8.86939 4.15867 9.06615 4.40137 9.06615H6.55492C6.79762 9.06615 6.99437 8.86939 6.99437 8.6267V6.47314C6.99437 6.23045 6.79762 6.03369 6.55492 6.03369ZM6.11547 8.18725H4.84082V6.9126H6.11547V8.18725Z" fill="black"/>
<path d="M10.5979 6.03369H8.44434C8.20164 6.03369 8.00488 6.23045 8.00488 6.47314V8.6267C8.00488 8.86939 8.20164 9.06615 8.44434 9.06615H10.5979C10.8406 9.06615 11.0373 8.86939 11.0373 8.6267V6.47314C11.0373 6.23045 10.8406 6.03369 10.5979 6.03369ZM10.1584 8.18725H8.88379V6.9126H10.1584V8.18725Z" fill="black"/>
</svg>
