<svg width="15" height="15" viewBox="0 0 15 15" fill="none" xmlns="http://www.w3.org/2000/svg">
<g clip-path="url(#clip0_22_446)">
<path fill-rule="evenodd" clip-rule="evenodd" d="M7.5 14.25C11.2279 14.25 14.25 11.228 14.25 7.5C14.25 3.77208 11.228 0.749984 7.5 0.749984C3.77208 0.749984 0.749984 3.77208 0.749984 7.5C0.749984 11.2279 3.77208 14.25 7.5 14.25ZM7.5 15C11.6421 15 15 11.6421 15 7.5C15 3.35783 11.6421 0 7.5 0C3.35783 0 0 3.35783 0 7.5C0 11.6421 3.35783 15 7.5 15Z" fill="black"/>
<path fill-rule="evenodd" clip-rule="evenodd" d="M9.44899 7.49995L6.00006 5.20069V9.79929L9.44899 7.49995ZM10.1458 7.06314C10.4575 7.27098 10.4575 7.72899 10.1458 7.93683L6.06623 10.6566C5.71735 10.8892 5.25 10.639 5.25 10.2197V4.78027C5.25 4.36095 5.71735 4.11085 6.06623 4.34346L10.1458 7.06314Z" fill="black"/>
</g>
<defs>
<clipPath id="clip0_22_446">
<rect width="15" height="15" fill="white"/>
</clipPath>
</defs>
</svg>
